<svg xmlns="http://www.w3.org/2000/svg" viewBox="0 0 387 387" role="img" aria-label="Palmetto Consulting of Columbia logo mark">
  <g transform="translate(-38.4507 422.5892) scale(0.1 -0.1)" fill="#0085b7">
    <path d="M2110 4224 c-446 -57 -826 -235 -1133 -533 -310 -300 -503 -666 -573 -1086 -26 -153 -26 -467 0 -620 134 -809 755 -1443 1563 -1597 187 -36 546 -33 728 5 777 165 1367 751 1520 1511 213 1058 -454 2068 -1515 2291 -108 23 -154 27 -340 30 -118 2 -231 1 -250 -1z m427 -779 c587 -111 1019 -679 955 -1254 -38 -340 -236 -679 -502 -858 -312 -210 -684 -262 -1032 -144 -383 129 -686 449 -784 828 -36 136 -44 341 -19 480 26 143 31 149 38 37 9 -131 29 -208 87 -329 279 -579 1095 -635 1457 -100 224 332 182 765 -102 1050 -164 163 -347 237 -590 237 -116 0 -119 1 -80 15 145 51 410 69 572 38z"/>
  </g>
</svg>
